# xmcd
#
# Track frame offsets: 
#        150
#        27645
#        42523
#        55938
#        70507
#        93687
#        119993
#        141978
#        159472
#        170983
#
# Disc length: 2542 seconds
#
# Revision: 0
# Processed by: cddbd v1.5.2PL0 Copyright (c) Steve Scherf et al.
# Submitted via: ExactAudioCopyFreeDBPlugin 1.0
#
DISCID=9d09ec0a
DTITLE=Various Artist - The Bread And Roses Festival Of Music - CD 1
DYEAR=1981
DGENRE=Country
TTITLE0=Norton Buffalo - I'm Taking Chances
TTITLE1=Hoyt Axton - The Devil
TTITLE2=John Hammond - Driving Wheel
TTITLE3=The Chambers Brothers - Tore Up Over You
TTITLE4=The Chambers Brothers - When Will I Be Loved
TTITLE5=Freebo And The Bread And Roses Dixieland Band - Basin Street B
TTITLE5=lues
TTITLE6=Maria Muldaur - Just As An Eagle Stirs Her Nest
TTITLE7=Graham Nash, Joel Bernstein - Military Madness
TTITLE8=Graham Nash, Joel Bernstein - Just A Song Before I Go
TTITLE9=David Crosby, Joel Bernstein, Graham Nash - Power
EXTD=
EXTT0=
EXTT1=
EXTT2=
EXTT3=
EXTT4=
EXTT5=
EXTT6=
EXTT7=
EXTT8=
EXTT9=
PLAYORDER=
